SplineFontDB: 3.0
FontName: TwentyfourSixteen-Regular
FullName: TwentyfourSixteen Regular
FamilyName: TwentyfourSixteen
Weight: Regular
Copyright: TwentyfourSixteen Regular\nMade in 2016 by Stewart C. Russell - scruss.com\nLicence: Dual-licensed CC0/WTFPL (srsly)\n\nCC0\nTo the extent possible under law, Stewart C. Russell has waived all copyright and related or neighbouring rights to TwentyfourSixteen Regular. This work is published from: Canada.\n
UComments: "TwentyfourSixteen Regular+AAoACgAA-Based on the HPDL-2416 17-segment alphanumeric 17 segment LED display matrix+AAoACgAA-Design size: appx 19 pt+AAoACgAA-For maximum fidelity, should be displayed/printed red to match the original's +AH4A-640 nm wavelength. This corresponds to RGB #ff2100"
FontLog: "2016-05-21 scruss+AAoA* Initial Release+AAoACgAA-scruss+AAoAKwAA initial release"
Version: 001.000
ItalicAngle: 0
UnderlinePosition: -204
UnderlineWidth: 102
Ascent: 1638
Descent: 410
InvalidEm: 0
LayerCount: 2
Layer: 0 0 "Back" 1
Layer: 1 0 "Fore" 0
XUID: [1021 132 1422713231 9225563]
StyleMap: 0x0040
FSType: 0
OS2Version: 0
OS2_WeightWidthSlopeOnly: 0
OS2_UseTypoMetrics: 1
CreationTime: 1463798021
ModificationTime: 1463804635
PfmFamily: 49
TTFWeight: 400
TTFWidth: 5
LineGap: 184
VLineGap: 0
OS2TypoAscent: 0
OS2TypoAOffset: 1
OS2TypoDescent: 0
OS2TypoDOffset: 1
OS2TypoLinegap: 184
OS2WinAscent: 0
OS2WinAOffset: 1
OS2WinDescent: 0
OS2WinDOffset: 1
HheadAscent: 0
HheadAOffset: 1
HheadDescent: 0
HheadDOffset: 1
OS2Vendor: 'PfEd'
MarkAttachClasses: 1
DEI: 91125
LangName: 1033
DesignSize: 194
Encoding: ISO8859-1
Compacted: 1
UnicodeInterp: none
NameList: AGL For New Fonts
DisplaySize: -48
AntiAlias: 1
FitToEm: 1
WinInfo: 0 17 10
BeginPrivate: 0
EndPrivate
TeXData: 1 20342374 0 628736 314368 209578 0 -1048576 209578 783286 444596 497025 792723 393216 433062 380633 303038 157286 324010 404750 52429 2506097 1059062 262144
BeginChars: 256 92

StartChar: uni007F
Encoding: 127 127 0
Width: 1228
VWidth: 0
Flags: W
HStem: 410 60<166 502 630 966> 500 60<634 689> 996 58<196 551 679 1034> 1578 60<262 598 726 1062>
VStem: 628 61<500 560 1465.25 1572>
LayerCount: 2
Back
Fore
SplineSet
628 500 m 1
 634 560 l 1
 694 560 l 1
 689 500 l 1
 628 500 l 1
198 485 m 1
 178 485 l 1
 184 561 l 1
 537 979 l 1
 565 979 l 1
 559 913 l 1
 198 485 l 1
938 485 m 1
 650 917 l 1
 655 979 l 1
 680 979 l 1
 962 557 l 1
 956 485 l 1
 938 485 l 1
691 1069 m 1
 663 1069 l 1
 669 1136 l 1
 1030 1563 l 1
 1050 1563 l 1
 1043 1487 l 1
 691 1069 l 1
548 1069 m 1
 266 1491 l 1
 272 1563 l 1
 290 1563 l 1
 578 1131 l 1
 573 1069 l 1
 548 1069 l 1
116 410 m 1
 166 470 l 1
 502 470 l 1
 542 410 l 1
 116 410 l 1
580 410 m 1
 630 470 l 1
 966 470 l 1
 1006 410 l 1
 580 410 l 1
1023 1080 m 1
 1063 1535 l 1
 1130 1614 l 1
 1080 1041 l 1
 1023 1080 l 1
973 514 m 1
 1013 970 l 1
 1077 1007 l 1
 1027 434 l 1
 973 514 l 1
215 1078 m 1
 151 1041 l 1
 201 1614 l 1
 255 1534 l 1
 215 1078 l 1
165 514 m 1
 98 434 l 1
 148 1007 l 1
 205 968 l 1
 165 514 l 1
683 1638 m 1
 1112 1638 l 1
 1062 1578 l 1
 726 1578 l 1
 683 1638 l 1
219 1638 m 1
 648 1638 l 1
 598 1578 l 1
 262 1578 l 1
 219 1638 l 1
618 1072 m 1
 592 1111 l 1
 632 1572 l 1
 665 1612 l 1
 692 1574 l 1
 652 1109 l 1
 618 1072 l 1
563 436 m 1
 536 476 l 1
 576 937 l 1
 610 976 l 1
 637 939 l 1
 596 473 l 1
 563 436 l 1
651 1020 m 1
 679 1054 l 1
 1040 1054 l 1
 1060 1025 l 1
 1034 994 l 1
 669 994 l 1
 651 1020 l 1
168 1023 m 1
 196 1054 l 1
 557 1054 l 1
 577 1026 l 1
 551 996 l 1
 186 996 l 1
 168 1023 l 1
EndSplineSet
EndChar

StartChar: exclam
Encoding: 33 33 2
Width: 1228
VWidth: 0
Flags: W
HStem: 500 60<634 689>
VStem: 628 61<500 560 1465.25 1572>
LayerCount: 2
Back
Fore
SplineSet
628 500 m 1
 634 560 l 1
 694 560 l 1
 689 500 l 1
 628 500 l 1
669 1136 m 1025
578 1131 m 1025
618 1072 m 1
 592 1111 l 1
 632 1572 l 1
 665 1612 l 1
 692 1574 l 1
 652 1109 l 1
 618 1072 l 1
EndSplineSet
EndChar

StartChar: quotedbl
Encoding: 34 34 3
Width: 1228
VWidth: 0
Flags: W
HStem: 1041 573
VStem: 151 541
LayerCount: 2
Back
Fore
SplineSet
215 1078 m 1
 151 1041 l 1
 201 1614 l 1
 255 1534 l 1
 215 1078 l 1
618 1072 m 1
 592 1111 l 1
 632 1572 l 1
 665 1612 l 1
 692 1574 l 1
 652 1109 l 1
 618 1072 l 1
EndSplineSet
EndChar

StartChar: numbersign
Encoding: 35 35 4
Width: 1228
VWidth: 0
Flags: W
HStem: 410 60<166 502 630 966> 996 58<196 551 679 1034>
LayerCount: 2
Back
Fore
SplineSet
116 410 m 1
 166 470 l 1
 502 470 l 1
 542 410 l 1
 116 410 l 1
580 410 m 1
 630 470 l 1
 966 470 l 1
 1006 410 l 1
 580 410 l 1
1023 1080 m 1
 1063 1535 l 1
 1130 1614 l 1
 1080 1041 l 1
 1023 1080 l 1
973 514 m 1
 1013 970 l 1
 1077 1007 l 1
 1027 434 l 1
 973 514 l 1
618 1072 m 1
 592 1111 l 1
 632 1572 l 1
 665 1612 l 1
 692 1574 l 1
 652 1109 l 1
 618 1072 l 1
563 436 m 1
 536 476 l 1
 576 937 l 1
 610 976 l 1
 637 939 l 1
 596 473 l 1
 563 436 l 1
651 1020 m 1
 679 1054 l 1
 1040 1054 l 1
 1060 1025 l 1
 1034 994 l 1
 669 994 l 1
 651 1020 l 1
168 1023 m 1
 196 1054 l 1
 557 1054 l 1
 577 1026 l 1
 551 996 l 1
 186 996 l 1
 168 1023 l 1
EndSplineSet
EndChar

StartChar: dollar
Encoding: 36 36 5
Width: 1228
VWidth: 0
Flags: W
HStem: 410 60<166 502 630 966> 996 58<196 551 679 1034> 1578 60<262 598 726 1062>
LayerCount: 2
Back
Fore
SplineSet
116 410 m 1
 166 470 l 1
 502 470 l 1
 542 410 l 1
 116 410 l 1
580 410 m 1
 630 470 l 1
 966 470 l 1
 1006 410 l 1
 580 410 l 1
973 514 m 1
 1013 970 l 1
 1077 1007 l 1
 1027 434 l 1
 973 514 l 1
215 1078 m 1
 151 1041 l 1
 201 1614 l 1
 255 1534 l 1
 215 1078 l 1
683 1638 m 1
 1112 1638 l 1
 1062 1578 l 1
 726 1578 l 1
 683 1638 l 1
219 1638 m 1
 648 1638 l 1
 598 1578 l 1
 262 1578 l 1
 219 1638 l 1
618 1072 m 1
 592 1111 l 1
 632 1572 l 1
 665 1612 l 1
 692 1574 l 1
 652 1109 l 1
 618 1072 l 1
563 436 m 1
 536 476 l 1
 576 937 l 1
 610 976 l 1
 637 939 l 1
 596 473 l 1
 563 436 l 1
651 1020 m 1
 679 1054 l 1
 1040 1054 l 1
 1060 1025 l 1
 1034 994 l 1
 669 994 l 1
 651 1020 l 1
168 1023 m 1
 196 1054 l 1
 557 1054 l 1
 577 1026 l 1
 551 996 l 1
 186 996 l 1
 168 1023 l 1
EndSplineSet
EndChar

StartChar: percent
Encoding: 37 37 6
Width: 1228
VWidth: 0
Flags: W
HStem: 410 60<630 966> 996 58<196 551 679 1034> 1578 60<262 598>
LayerCount: 2
Back
Fore
SplineSet
198 485 m 1
 178 485 l 1
 184 561 l 1
 537 979 l 1
 565 979 l 1
 559 913 l 1
 198 485 l 1
691 1069 m 1
 663 1069 l 1
 669 1136 l 1
 1030 1563 l 1
 1050 1563 l 1
 1043 1487 l 1
 691 1069 l 1
580 410 m 1
 630 470 l 1
 966 470 l 1
 1006 410 l 1
 580 410 l 1
973 514 m 1
 1013 970 l 1
 1077 1007 l 1
 1027 434 l 1
 973 514 l 1
215 1078 m 1
 151 1041 l 1
 201 1614 l 1
 255 1534 l 1
 215 1078 l 1
219 1638 m 1
 648 1638 l 1
 598 1578 l 1
 262 1578 l 1
 219 1638 l 1
618 1072 m 1
 592 1111 l 1
 632 1572 l 1
 665 1612 l 1
 692 1574 l 1
 652 1109 l 1
 618 1072 l 1
563 436 m 1
 536 476 l 1
 576 937 l 1
 610 976 l 1
 637 939 l 1
 596 473 l 1
 563 436 l 1
651 1020 m 1
 679 1054 l 1
 1040 1054 l 1
 1060 1025 l 1
 1034 994 l 1
 669 994 l 1
 651 1020 l 1
168 1023 m 1
 196 1054 l 1
 557 1054 l 1
 577 1026 l 1
 551 996 l 1
 186 996 l 1
 168 1023 l 1
EndSplineSet
EndChar

StartChar: grave
Encoding: 96 96 7
Width: 1228
VWidth: 0
Flags: W
HStem: 1069 494
VStem: 266 312
LayerCount: 2
Back
Fore
SplineSet
548 1069 m 5
 266 1491 l 5
 272 1563 l 5
 290 1563 l 5
 578 1131 l 5
 573 1069 l 5
 548 1069 l 5
EndSplineSet
EndChar

StartChar: ampersand
Encoding: 38 38 8
Width: 1228
VWidth: 0
Flags: W
HStem: 410 60<166 502 630 966> 996 58<196 551> 1578 60<262 598>
LayerCount: 2
Back
Fore
SplineSet
938 485 m 1
 650 917 l 1
 655 979 l 1
 680 979 l 1
 962 557 l 1
 956 485 l 1
 938 485 l 1
548 1069 m 1
 266 1491 l 1
 272 1563 l 1
 290 1563 l 1
 578 1131 l 1
 573 1069 l 1
 548 1069 l 1
116 410 m 1
 166 470 l 1
 502 470 l 1
 542 410 l 1
 116 410 l 1
580 410 m 1
 630 470 l 1
 966 470 l 1
 1006 410 l 1
 580 410 l 1
973 514 m 1
 1013 970 l 1
 1077 1007 l 1
 1027 434 l 1
 973 514 l 1
165 514 m 1
 98 434 l 1
 148 1007 l 1
 205 968 l 1
 165 514 l 1
219 1638 m 1
 648 1638 l 1
 598 1578 l 1
 262 1578 l 1
 219 1638 l 1
618 1072 m 1
 592 1111 l 1
 632 1572 l 1
 665 1612 l 1
 692 1574 l 1
 652 1109 l 1
 618 1072 l 1
168 1023 m 1
 196 1054 l 1
 557 1054 l 1
 577 1026 l 1
 551 996 l 1
 186 996 l 1
 168 1023 l 1
EndSplineSet
EndChar

StartChar: quotesingle
Encoding: 39 39 9
Width: 1228
VWidth: 0
Flags: W
HStem: 1069 494
VStem: 663 387
LayerCount: 2
Back
Fore
SplineSet
691 1069 m 5
 663 1069 l 5
 669 1136 l 5
 1030 1563 l 5
 1050 1563 l 5
 1043 1487 l 5
 691 1069 l 5
EndSplineSet
EndChar

StartChar: parenleft
Encoding: 40 40 10
Width: 1228
VWidth: 0
Flags: W
VStem: 650 400
LayerCount: 2
Back
Fore
SplineSet
938 485 m 5
 650 917 l 5
 655 979 l 5
 680 979 l 5
 962 557 l 5
 956 485 l 5
 938 485 l 5
691 1069 m 5
 663 1069 l 5
 669 1136 l 5
 1030 1563 l 5
 1050 1563 l 5
 1043 1487 l 5
 691 1069 l 5
EndSplineSet
EndChar

StartChar: parenright
Encoding: 41 41 11
Width: 1228
VWidth: 0
Flags: W
VStem: 178 400
LayerCount: 2
Back
Fore
SplineSet
198 485 m 5
 178 485 l 5
 184 561 l 5
 537 979 l 5
 565 979 l 5
 559 913 l 5
 198 485 l 5
548 1069 m 5
 266 1491 l 5
 272 1563 l 5
 290 1563 l 5
 578 1131 l 5
 573 1069 l 5
 548 1069 l 5
EndSplineSet
EndChar

StartChar: asterisk
Encoding: 42 42 12
Width: 1228
VWidth: 0
Flags: W
HStem: 996 58<196 551 679 1034>
LayerCount: 2
Back
Fore
SplineSet
198 485 m 5
 178 485 l 5
 184 561 l 5
 537 979 l 5
 565 979 l 5
 559 913 l 5
 198 485 l 5
938 485 m 5
 650 917 l 5
 655 979 l 5
 680 979 l 5
 962 557 l 5
 956 485 l 5
 938 485 l 5
691 1069 m 5
 663 1069 l 5
 669 1136 l 5
 1030 1563 l 5
 1050 1563 l 5
 1043 1487 l 5
 691 1069 l 5
548 1069 m 5
 266 1491 l 5
 272 1563 l 5
 290 1563 l 5
 578 1131 l 5
 573 1069 l 5
 548 1069 l 5
618 1072 m 5
 592 1111 l 5
 632 1572 l 5
 665 1612 l 5
 692 1574 l 5
 652 1109 l 5
 618 1072 l 5
563 436 m 5
 536 476 l 5
 576 937 l 5
 610 976 l 5
 637 939 l 5
 596 473 l 5
 563 436 l 5
651 1020 m 5
 679 1054 l 5
 1040 1054 l 5
 1060 1025 l 5
 1034 994 l 5
 669 994 l 5
 651 1020 l 5
168 1023 m 5
 196 1054 l 5
 557 1054 l 5
 577 1026 l 5
 551 996 l 5
 186 996 l 5
 168 1023 l 5
EndSplineSet
EndChar

StartChar: plus
Encoding: 43 43 13
Width: 1228
VWidth: 0
Flags: W
HStem: 996 58<196 551 679 1034>
LayerCount: 2
Back
Fore
SplineSet
618 1072 m 5
 592 1111 l 5
 632 1572 l 5
 665 1612 l 5
 692 1574 l 5
 652 1109 l 5
 618 1072 l 5
563 436 m 5
 536 476 l 5
 576 937 l 5
 610 976 l 5
 637 939 l 5
 596 473 l 5
 563 436 l 5
651 1020 m 5
 679 1054 l 5
 1040 1054 l 5
 1060 1025 l 5
 1034 994 l 5
 669 994 l 5
 651 1020 l 5
168 1023 m 5
 196 1054 l 5
 557 1054 l 5
 577 1026 l 5
 551 996 l 5
 186 996 l 5
 168 1023 l 5
EndSplineSet
EndChar

StartChar: comma
Encoding: 44 44 14
Width: 1228
VWidth: 0
Flags: W
HStem: 485 494
VStem: 178 387
LayerCount: 2
Back
Fore
SplineSet
198 485 m 5
 178 485 l 5
 184 561 l 5
 537 979 l 5
 565 979 l 5
 559 913 l 5
 198 485 l 5
EndSplineSet
EndChar

StartChar: hyphen
Encoding: 45 45 15
Width: 1228
VWidth: 0
Flags: W
HStem: 996 58<196 551 679 1034>
LayerCount: 2
Back
Fore
SplineSet
651 1020 m 5
 679 1054 l 5
 1040 1054 l 5
 1060 1025 l 5
 1034 994 l 5
 669 994 l 5
 651 1020 l 5
168 1023 m 5
 196 1054 l 5
 557 1054 l 5
 577 1026 l 5
 551 996 l 5
 186 996 l 5
 168 1023 l 5
EndSplineSet
EndChar

StartChar: period
Encoding: 46 46 16
Width: 1228
VWidth: 0
Flags: W
HStem: 500 60<634 689>
VStem: 628 61<500 560>
LayerCount: 2
Back
Fore
SplineSet
628 500 m 5
 634 560 l 5
 694 560 l 5
 689 500 l 5
 628 500 l 5
EndSplineSet
EndChar

StartChar: slash
Encoding: 47 47 17
Width: 1228
VWidth: 0
Flags: W
LayerCount: 2
Back
Fore
SplineSet
198 485 m 5
 178 485 l 5
 184 561 l 5
 537 979 l 5
 565 979 l 5
 559 913 l 5
 198 485 l 5
691 1069 m 5
 663 1069 l 5
 669 1136 l 5
 1030 1563 l 5
 1050 1563 l 5
 1043 1487 l 5
 691 1069 l 5
EndSplineSet
EndChar

StartChar: zero
Encoding: 48 48 18
Width: 1228
VWidth: 0
Flags: W
HStem: 410 60<166 502> 1578 60<262 598>
VStem: 98 594
LayerCount: 2
Back
Fore
SplineSet
116 410 m 5
 166 470 l 5
 502 470 l 5
 542 410 l 5
 116 410 l 5
215 1078 m 5
 151 1041 l 5
 201 1614 l 5
 255 1534 l 5
 215 1078 l 5
165 514 m 5
 98 434 l 5
 148 1007 l 5
 205 968 l 5
 165 514 l 5
219 1638 m 5
 648 1638 l 5
 598 1578 l 5
 262 1578 l 5
 219 1638 l 5
618 1072 m 5
 592 1111 l 5
 632 1572 l 5
 665 1612 l 5
 692 1574 l 5
 652 1109 l 5
 618 1072 l 5
563 436 m 5
 536 476 l 5
 576 937 l 5
 610 976 l 5
 637 939 l 5
 596 473 l 5
 563 436 l 5
EndSplineSet
EndChar

StartChar: one
Encoding: 49 49 19
Width: 1228
VWidth: 0
Flags: W
VStem: 536 156
LayerCount: 2
Back
Fore
SplineSet
618 1072 m 5
 592 1111 l 5
 632 1572 l 5
 665 1612 l 5
 692 1574 l 5
 652 1109 l 5
 618 1072 l 5
563 436 m 5
 536 476 l 5
 576 937 l 5
 610 976 l 5
 637 939 l 5
 596 473 l 5
 563 436 l 5
EndSplineSet
EndChar

StartChar: two
Encoding: 50 50 20
Width: 1228
VWidth: 0
Flags: W
HStem: 410 60<166 502> 996 58<196 551> 1578 60<262 598>
VStem: 98 594
LayerCount: 2
Back
Fore
SplineSet
116 410 m 5
 166 470 l 5
 502 470 l 5
 542 410 l 5
 116 410 l 5
165 514 m 5
 98 434 l 5
 148 1007 l 5
 205 968 l 5
 165 514 l 5
219 1638 m 5
 648 1638 l 5
 598 1578 l 5
 262 1578 l 5
 219 1638 l 5
618 1072 m 5
 592 1111 l 5
 632 1572 l 5
 665 1612 l 5
 692 1574 l 5
 652 1109 l 5
 618 1072 l 5
168 1023 m 5
 196 1054 l 5
 557 1054 l 5
 577 1026 l 5
 551 996 l 5
 186 996 l 5
 168 1023 l 5
EndSplineSet
EndChar

StartChar: three
Encoding: 51 51 21
Width: 1228
VWidth: 0
Flags: W
HStem: 410 60<166 502> 996 58<196 551> 1578 60<262 598>
VStem: 116 576
LayerCount: 2
Back
Fore
SplineSet
116 410 m 5
 166 470 l 5
 502 470 l 5
 542 410 l 5
 116 410 l 5
219 1638 m 5
 648 1638 l 5
 598 1578 l 5
 262 1578 l 5
 219 1638 l 5
618 1072 m 5
 592 1111 l 5
 632 1572 l 5
 665 1612 l 5
 692 1574 l 5
 652 1109 l 5
 618 1072 l 5
563 436 m 5
 536 476 l 5
 576 937 l 5
 610 976 l 5
 637 939 l 5
 596 473 l 5
 563 436 l 5
168 1023 m 5
 196 1054 l 5
 557 1054 l 5
 577 1026 l 5
 551 996 l 5
 186 996 l 5
 168 1023 l 5
EndSplineSet
EndChar

StartChar: four
Encoding: 52 52 22
Width: 1228
VWidth: 0
Flags: W
HStem: 996 58<196 551>
VStem: 151 541
LayerCount: 2
Back
Fore
SplineSet
215 1078 m 5
 151 1041 l 5
 201 1614 l 5
 255 1534 l 5
 215 1078 l 5
618 1072 m 5
 592 1111 l 5
 632 1572 l 5
 665 1612 l 5
 692 1574 l 5
 652 1109 l 5
 618 1072 l 5
563 436 m 5
 536 476 l 5
 576 937 l 5
 610 976 l 5
 637 939 l 5
 596 473 l 5
 563 436 l 5
168 1023 m 5
 196 1054 l 5
 557 1054 l 5
 577 1026 l 5
 551 996 l 5
 186 996 l 5
 168 1023 l 5
EndSplineSet
EndChar

StartChar: five
Encoding: 53 53 23
Width: 1228
VWidth: 0
Flags: W
HStem: 410 60<166 502> 996 58<196 551> 1578 60<262 598>
VStem: 116 532
LayerCount: 2
Back
Fore
SplineSet
116 410 m 5
 166 470 l 5
 502 470 l 5
 542 410 l 5
 116 410 l 5
215 1078 m 5
 151 1041 l 5
 201 1614 l 5
 255 1534 l 5
 215 1078 l 5
219 1638 m 5
 648 1638 l 5
 598 1578 l 5
 262 1578 l 5
 219 1638 l 5
563 436 m 5
 536 476 l 5
 576 937 l 5
 610 976 l 5
 637 939 l 5
 596 473 l 5
 563 436 l 5
168 1023 m 5
 196 1054 l 5
 557 1054 l 5
 577 1026 l 5
 551 996 l 5
 186 996 l 5
 168 1023 l 5
EndSplineSet
EndChar

StartChar: six
Encoding: 54 54 24
Width: 1228
VWidth: 0
Flags: W
HStem: 410 60<166 502> 996 58<196 551> 1578 60<262 598>
VStem: 98 550
LayerCount: 2
Back
Fore
SplineSet
116 410 m 5
 166 470 l 5
 502 470 l 5
 542 410 l 5
 116 410 l 5
215 1078 m 5
 151 1041 l 5
 201 1614 l 5
 255 1534 l 5
 215 1078 l 5
165 514 m 5
 98 434 l 5
 148 1007 l 5
 205 968 l 5
 165 514 l 5
219 1638 m 5
 648 1638 l 5
 598 1578 l 5
 262 1578 l 5
 219 1638 l 5
563 436 m 5
 536 476 l 5
 576 937 l 5
 610 976 l 5
 637 939 l 5
 596 473 l 5
 563 436 l 5
168 1023 m 5
 196 1054 l 5
 557 1054 l 5
 577 1026 l 5
 551 996 l 5
 186 996 l 5
 168 1023 l 5
EndSplineSet
EndChar

StartChar: seven
Encoding: 55 55 25
Width: 1228
VWidth: 0
Flags: W
HStem: 1578 60<262 598>
VStem: 219 473
LayerCount: 2
Back
Fore
SplineSet
219 1638 m 5
 648 1638 l 5
 598 1578 l 5
 262 1578 l 5
 219 1638 l 5
618 1072 m 5
 592 1111 l 5
 632 1572 l 5
 665 1612 l 5
 692 1574 l 5
 652 1109 l 5
 618 1072 l 5
563 436 m 5
 536 476 l 5
 576 937 l 5
 610 976 l 5
 637 939 l 5
 596 473 l 5
 563 436 l 5
EndSplineSet
EndChar

StartChar: eight
Encoding: 56 56 26
Width: 1228
VWidth: 0
Flags: W
HStem: 410 60<166 502> 996 58<196 551> 1578 60<262 598>
VStem: 98 594
LayerCount: 2
Back
Fore
SplineSet
116 410 m 5
 166 470 l 5
 502 470 l 5
 542 410 l 5
 116 410 l 5
215 1078 m 5
 151 1041 l 5
 201 1614 l 5
 255 1534 l 5
 215 1078 l 5
165 514 m 5
 98 434 l 5
 148 1007 l 5
 205 968 l 5
 165 514 l 5
219 1638 m 5
 648 1638 l 5
 598 1578 l 5
 262 1578 l 5
 219 1638 l 5
618 1072 m 5
 592 1111 l 5
 632 1572 l 5
 665 1612 l 5
 692 1574 l 5
 652 1109 l 5
 618 1072 l 5
563 436 m 5
 536 476 l 5
 576 937 l 5
 610 976 l 5
 637 939 l 5
 596 473 l 5
 563 436 l 5
168 1023 m 5
 196 1054 l 5
 557 1054 l 5
 577 1026 l 5
 551 996 l 5
 186 996 l 5
 168 1023 l 5
EndSplineSet
EndChar

StartChar: nine
Encoding: 57 57 27
Width: 1228
VWidth: 0
Flags: W
HStem: 996 58<196 551> 1578 60<262 598>
VStem: 151 541
LayerCount: 2
Back
Fore
SplineSet
215 1078 m 5
 151 1041 l 5
 201 1614 l 5
 255 1534 l 5
 215 1078 l 5
219 1638 m 5
 648 1638 l 5
 598 1578 l 5
 262 1578 l 5
 219 1638 l 5
618 1072 m 5
 592 1111 l 5
 632 1572 l 5
 665 1612 l 5
 692 1574 l 5
 652 1109 l 5
 618 1072 l 5
563 436 m 5
 536 476 l 5
 576 937 l 5
 610 976 l 5
 637 939 l 5
 596 473 l 5
 563 436 l 5
168 1023 m 5
 196 1054 l 5
 557 1054 l 5
 577 1026 l 5
 551 996 l 5
 186 996 l 5
 168 1023 l 5
EndSplineSet
EndChar

StartChar: colon
Encoding: 58 58 28
Width: 1228
VWidth: 0
Flags: W
HStem: 410 60<166 502> 1578 60<262 598>
VStem: 116 532
LayerCount: 2
Back
Fore
SplineSet
116 410 m 5
 166 470 l 5
 502 470 l 5
 542 410 l 5
 116 410 l 5
219 1638 m 5
 648 1638 l 5
 598 1578 l 5
 262 1578 l 5
 219 1638 l 5
EndSplineSet
EndChar

StartChar: semicolon
Encoding: 59 59 29
Width: 1228
VWidth: 0
Flags: W
HStem: 1578 60<262 598>
VStem: 178 470
LayerCount: 2
Back
Fore
SplineSet
198 485 m 5
 178 485 l 5
 184 561 l 5
 537 979 l 5
 565 979 l 5
 559 913 l 5
 198 485 l 5
219 1638 m 5
 648 1638 l 5
 598 1578 l 5
 262 1578 l 5
 219 1638 l 5
EndSplineSet
EndChar

StartChar: less
Encoding: 60 60 30
Width: 1228
VWidth: 0
Flags: W
HStem: 410 60<166 502 630 966>
LayerCount: 2
Back
Fore
SplineSet
198 485 m 5
 178 485 l 5
 184 561 l 5
 537 979 l 5
 565 979 l 5
 559 913 l 5
 198 485 l 5
691 1069 m 5
 663 1069 l 5
 669 1136 l 5
 1030 1563 l 5
 1050 1563 l 5
 1043 1487 l 5
 691 1069 l 5
116 410 m 5
 166 470 l 5
 502 470 l 5
 542 410 l 5
 116 410 l 5
580 410 m 5
 630 470 l 5
 966 470 l 5
 1006 410 l 5
 580 410 l 5
EndSplineSet
EndChar

StartChar: equal
Encoding: 61 61 31
Width: 1228
VWidth: 0
Flags: W
HStem: 410 60<166 502 630 966> 996 58<196 551 679 1034>
LayerCount: 2
Back
Fore
SplineSet
116 410 m 5
 166 470 l 5
 502 470 l 5
 542 410 l 5
 116 410 l 5
580 410 m 5
 630 470 l 5
 966 470 l 5
 1006 410 l 5
 580 410 l 5
651 1020 m 5
 679 1054 l 5
 1040 1054 l 5
 1060 1025 l 5
 1034 994 l 5
 669 994 l 5
 651 1020 l 5
168 1023 m 5
 196 1054 l 5
 557 1054 l 5
 577 1026 l 5
 551 996 l 5
 186 996 l 5
 168 1023 l 5
EndSplineSet
EndChar

StartChar: greater
Encoding: 62 62 32
Width: 1228
VWidth: 0
Flags: W
HStem: 410 60<166 502 630 966>
LayerCount: 2
Back
Fore
SplineSet
938 485 m 5
 650 917 l 5
 655 979 l 5
 680 979 l 5
 962 557 l 5
 956 485 l 5
 938 485 l 5
548 1069 m 5
 266 1491 l 5
 272 1563 l 5
 290 1563 l 5
 578 1131 l 5
 573 1069 l 5
 548 1069 l 5
116 410 m 5
 166 470 l 5
 502 470 l 5
 542 410 l 5
 116 410 l 5
580 410 m 5
 630 470 l 5
 966 470 l 5
 1006 410 l 5
 580 410 l 5
EndSplineSet
EndChar

StartChar: question
Encoding: 63 63 33
Width: 1228
VWidth: 0
Flags: W
HStem: 996 58<196 551 679 1034> 1578 60<262 598 726 1062>
LayerCount: 2
Back
Fore
SplineSet
1023 1080 m 5
 1063 1535 l 5
 1130 1614 l 5
 1080 1041 l 5
 1023 1080 l 5
165 514 m 5
 98 434 l 5
 148 1007 l 5
 205 968 l 5
 165 514 l 5
683 1638 m 5
 1112 1638 l 5
 1062 1578 l 5
 726 1578 l 5
 683 1638 l 5
219 1638 m 5
 648 1638 l 5
 598 1578 l 5
 262 1578 l 5
 219 1638 l 5
651 1020 m 5
 679 1054 l 5
 1040 1054 l 5
 1060 1025 l 5
 1034 994 l 5
 669 994 l 5
 651 1020 l 5
168 1023 m 5
 196 1054 l 5
 557 1054 l 5
 577 1026 l 5
 551 996 l 5
 186 996 l 5
 168 1023 l 5
EndSplineSet
EndChar

StartChar: at
Encoding: 64 64 34
Width: 1228
VWidth: 0
Flags: W
HStem: 410 60<166 502 630 966> 996 58<196 551> 1578 60<262 598 726 1062>
LayerCount: 2
Back
Fore
SplineSet
116 410 m 5
 166 470 l 5
 502 470 l 5
 542 410 l 5
 116 410 l 5
580 410 m 5
 630 470 l 5
 966 470 l 5
 1006 410 l 5
 580 410 l 5
1023 1080 m 5
 1063 1535 l 5
 1130 1614 l 5
 1080 1041 l 5
 1023 1080 l 5
973 514 m 5
 1013 970 l 5
 1077 1007 l 5
 1027 434 l 5
 973 514 l 5
165 514 m 5
 98 434 l 5
 148 1007 l 5
 205 968 l 5
 165 514 l 5
683 1638 m 5
 1112 1638 l 5
 1062 1578 l 5
 726 1578 l 5
 683 1638 l 5
219 1638 m 5
 648 1638 l 5
 598 1578 l 5
 262 1578 l 5
 219 1638 l 5
563 436 m 5
 536 476 l 5
 576 937 l 5
 610 976 l 5
 637 939 l 5
 596 473 l 5
 563 436 l 5
168 1023 m 5
 196 1054 l 5
 557 1054 l 5
 577 1026 l 5
 551 996 l 5
 186 996 l 5
 168 1023 l 5
EndSplineSet
EndChar

StartChar: A
Encoding: 65 65 35
Width: 1228
VWidth: 0
Flags: W
HStem: 996 58<196 551 679 1034> 1578 60<262 598 726 1062>
LayerCount: 2
Back
Fore
SplineSet
1023 1080 m 5
 1063 1535 l 5
 1130 1614 l 5
 1080 1041 l 5
 1023 1080 l 5
973 514 m 5
 1013 970 l 5
 1077 1007 l 5
 1027 434 l 5
 973 514 l 5
215 1078 m 5
 151 1041 l 5
 201 1614 l 5
 255 1534 l 5
 215 1078 l 5
165 514 m 5
 98 434 l 5
 148 1007 l 5
 205 968 l 5
 165 514 l 5
683 1638 m 5
 1112 1638 l 5
 1062 1578 l 5
 726 1578 l 5
 683 1638 l 5
219 1638 m 5
 648 1638 l 5
 598 1578 l 5
 262 1578 l 5
 219 1638 l 5
651 1020 m 5
 679 1054 l 5
 1040 1054 l 5
 1060 1025 l 5
 1034 994 l 5
 669 994 l 5
 651 1020 l 5
168 1023 m 5
 196 1054 l 5
 557 1054 l 5
 577 1026 l 5
 551 996 l 5
 186 996 l 5
 168 1023 l 5
EndSplineSet
EndChar

StartChar: B
Encoding: 66 66 36
Width: 1228
VWidth: 0
Flags: W
HStem: 410 60<166 502 630 966> 994 60<679 1034> 1578 60<262 598 726 1062>
CounterMasks: 1 e0
LayerCount: 2
Back
Fore
SplineSet
116 410 m 5
 166 470 l 5
 502 470 l 5
 542 410 l 5
 116 410 l 5
580 410 m 5
 630 470 l 5
 966 470 l 5
 1006 410 l 5
 580 410 l 5
1023 1080 m 5
 1063 1535 l 5
 1130 1614 l 5
 1080 1041 l 5
 1023 1080 l 5
973 514 m 5
 1013 970 l 5
 1077 1007 l 5
 1027 434 l 5
 973 514 l 5
683 1638 m 5
 1112 1638 l 5
 1062 1578 l 5
 726 1578 l 5
 683 1638 l 5
219 1638 m 5
 648 1638 l 5
 598 1578 l 5
 262 1578 l 5
 219 1638 l 5
618 1072 m 5
 592 1111 l 5
 632 1572 l 5
 665 1612 l 5
 692 1574 l 5
 652 1109 l 5
 618 1072 l 5
563 436 m 5
 536 476 l 5
 576 937 l 5
 610 976 l 5
 637 939 l 5
 596 473 l 5
 563 436 l 5
651 1020 m 5
 679 1054 l 5
 1040 1054 l 5
 1060 1025 l 5
 1034 994 l 5
 669 994 l 5
 651 1020 l 5
EndSplineSet
EndChar

StartChar: C
Encoding: 67 67 37
Width: 1228
VWidth: 0
Flags: W
HStem: 410 60<166 502 630 966> 1578 60<262 598 726 1062>
LayerCount: 2
Back
Fore
SplineSet
116 410 m 5
 166 470 l 5
 502 470 l 5
 542 410 l 5
 116 410 l 5
580 410 m 5
 630 470 l 5
 966 470 l 5
 1006 410 l 5
 580 410 l 5
215 1078 m 5
 151 1041 l 5
 201 1614 l 5
 255 1534 l 5
 215 1078 l 5
165 514 m 5
 98 434 l 5
 148 1007 l 5
 205 968 l 5
 165 514 l 5
683 1638 m 5
 1112 1638 l 5
 1062 1578 l 5
 726 1578 l 5
 683 1638 l 5
219 1638 m 5
 648 1638 l 5
 598 1578 l 5
 262 1578 l 5
 219 1638 l 5
EndSplineSet
EndChar

StartChar: D
Encoding: 68 68 38
Width: 1228
VWidth: 0
Flags: W
HStem: 410 60<166 502 630 966> 500 60<634 689> 996 60<196 551 679 1034> 1578 60<262 598 726 1062>
VStem: 628 61<500 560 1465.25 1572>
LayerCount: 2
Back
Fore
SplineSet
116 410 m 5
 166 470 l 5
 502 470 l 5
 542 410 l 5
 116 410 l 5
580 410 m 5
 630 470 l 5
 966 470 l 5
 1006 410 l 5
 580 410 l 5
1023 1080 m 5
 1063 1535 l 5
 1130 1614 l 5
 1080 1041 l 5
 1023 1080 l 5
973 514 m 5
 1013 970 l 5
 1077 1007 l 5
 1027 434 l 5
 973 514 l 5
683 1638 m 5
 1112 1638 l 5
 1062 1578 l 5
 726 1578 l 5
 683 1638 l 5
219 1638 m 5
 648 1638 l 5
 598 1578 l 5
 262 1578 l 5
 219 1638 l 5
618 1072 m 5
 592 1111 l 5
 632 1572 l 5
 665 1612 l 5
 692 1574 l 5
 652 1109 l 5
 618 1072 l 5
563 436 m 5
 536 476 l 5
 576 937 l 5
 610 976 l 5
 637 939 l 5
 596 473 l 5
 563 436 l 5
EndSplineSet
EndChar

StartChar: E
Encoding: 69 69 39
Width: 1228
VWidth: 0
Flags: W
HStem: 410 60<166 502 630 966> 996 58<196 551> 1578 60<262 598 726 1062>
LayerCount: 2
Back
Fore
SplineSet
116 410 m 5
 166 470 l 5
 502 470 l 5
 542 410 l 5
 116 410 l 5
580 410 m 5
 630 470 l 5
 966 470 l 5
 1006 410 l 5
 580 410 l 5
215 1078 m 5
 151 1041 l 5
 201 1614 l 5
 255 1534 l 5
 215 1078 l 5
165 514 m 5
 98 434 l 5
 148 1007 l 5
 205 968 l 5
 165 514 l 5
683 1638 m 5
 1112 1638 l 5
 1062 1578 l 5
 726 1578 l 5
 683 1638 l 5
219 1638 m 5
 648 1638 l 5
 598 1578 l 5
 262 1578 l 5
 219 1638 l 5
168 1023 m 5
 196 1054 l 5
 557 1054 l 5
 577 1026 l 5
 551 996 l 5
 186 996 l 5
 168 1023 l 5
EndSplineSet
EndChar

StartChar: F
Encoding: 70 70 40
Width: 1228
VWidth: 0
Flags: W
HStem: 996 58<196 551> 1578 60<262 598 726 1062>
LayerCount: 2
Back
Fore
SplineSet
215 1078 m 5
 151 1041 l 5
 201 1614 l 5
 255 1534 l 5
 215 1078 l 5
165 514 m 5
 98 434 l 5
 148 1007 l 5
 205 968 l 5
 165 514 l 5
683 1638 m 5
 1112 1638 l 5
 1062 1578 l 5
 726 1578 l 5
 683 1638 l 5
219 1638 m 5
 648 1638 l 5
 598 1578 l 5
 262 1578 l 5
 219 1638 l 5
168 1023 m 5
 196 1054 l 5
 557 1054 l 5
 577 1026 l 5
 551 996 l 5
 186 996 l 5
 168 1023 l 5
EndSplineSet
EndChar

StartChar: G
Encoding: 71 71 41
Width: 1228
VWidth: 0
Flags: W
HStem: 410 60<166 502 630 966> 994 60<679 1034> 1578 60<262 598 726 1062>
CounterMasks: 1 e0
LayerCount: 2
Back
Fore
SplineSet
116 410 m 5
 166 470 l 5
 502 470 l 5
 542 410 l 5
 116 410 l 5
580 410 m 5
 630 470 l 5
 966 470 l 5
 1006 410 l 5
 580 410 l 5
973 514 m 5
 1013 970 l 5
 1077 1007 l 5
 1027 434 l 5
 973 514 l 5
215 1078 m 5
 151 1041 l 5
 201 1614 l 5
 255 1534 l 5
 215 1078 l 5
165 514 m 5
 98 434 l 5
 148 1007 l 5
 205 968 l 5
 165 514 l 5
683 1638 m 5
 1112 1638 l 5
 1062 1578 l 5
 726 1578 l 5
 683 1638 l 5
219 1638 m 5
 648 1638 l 5
 598 1578 l 5
 262 1578 l 5
 219 1638 l 5
651 1020 m 5
 679 1054 l 5
 1040 1054 l 5
 1060 1025 l 5
 1034 994 l 5
 669 994 l 5
 651 1020 l 5
EndSplineSet
EndChar

StartChar: H
Encoding: 72 72 42
Width: 1228
VWidth: 0
Flags: W
HStem: 996 58<196 551 679 1034>
LayerCount: 2
Back
Fore
SplineSet
1023 1080 m 5
 1063 1535 l 5
 1130 1614 l 5
 1080 1041 l 5
 1023 1080 l 5
973 514 m 5
 1013 970 l 5
 1077 1007 l 5
 1027 434 l 5
 973 514 l 5
215 1078 m 5
 151 1041 l 5
 201 1614 l 5
 255 1534 l 5
 215 1078 l 5
165 514 m 5
 98 434 l 5
 148 1007 l 5
 205 968 l 5
 165 514 l 5
651 1020 m 5
 679 1054 l 5
 1040 1054 l 5
 1060 1025 l 5
 1034 994 l 5
 669 994 l 5
 651 1020 l 5
168 1023 m 5
 196 1054 l 5
 557 1054 l 5
 577 1026 l 5
 551 996 l 5
 186 996 l 5
 168 1023 l 5
EndSplineSet
EndChar

StartChar: I
Encoding: 73 73 43
Width: 1228
VWidth: 0
Flags: W
HStem: 410 60<166 502 630 966> 1578 60<262 598 726 1062>
LayerCount: 2
Back
Fore
SplineSet
116 410 m 5
 166 470 l 5
 502 470 l 5
 542 410 l 5
 116 410 l 5
580 410 m 5
 630 470 l 5
 966 470 l 5
 1006 410 l 5
 580 410 l 5
683 1638 m 5
 1112 1638 l 5
 1062 1578 l 5
 726 1578 l 5
 683 1638 l 5
219 1638 m 5
 648 1638 l 5
 598 1578 l 5
 262 1578 l 5
 219 1638 l 5
618 1072 m 5
 592 1111 l 5
 632 1572 l 5
 665 1612 l 5
 692 1574 l 5
 652 1109 l 5
 618 1072 l 5
563 436 m 5
 536 476 l 5
 576 937 l 5
 610 976 l 5
 637 939 l 5
 596 473 l 5
 563 436 l 5
EndSplineSet
EndChar

StartChar: J
Encoding: 74 74 44
Width: 1228
VWidth: 0
Flags: W
HStem: 410 60<166 502> 1578 60<262 598 726 1062>
LayerCount: 2
Back
Fore
SplineSet
116 410 m 5
 166 470 l 5
 502 470 l 5
 542 410 l 5
 116 410 l 5
165 514 m 5
 98 434 l 5
 148 1007 l 5
 205 968 l 5
 165 514 l 5
683 1638 m 5
 1112 1638 l 5
 1062 1578 l 5
 726 1578 l 5
 683 1638 l 5
219 1638 m 5
 648 1638 l 5
 598 1578 l 5
 262 1578 l 5
 219 1638 l 5
618 1072 m 5
 592 1111 l 5
 632 1572 l 5
 665 1612 l 5
 692 1574 l 5
 652 1109 l 5
 618 1072 l 5
563 436 m 5
 536 476 l 5
 576 937 l 5
 610 976 l 5
 637 939 l 5
 596 473 l 5
 563 436 l 5
EndSplineSet
EndChar

StartChar: K
Encoding: 75 75 45
Width: 1228
VWidth: 0
Flags: W
HStem: 996 58<196 551>
LayerCount: 2
Back
Fore
SplineSet
938 485 m 5
 650 917 l 5
 655 979 l 5
 680 979 l 5
 962 557 l 5
 956 485 l 5
 938 485 l 5
691 1069 m 5
 663 1069 l 5
 669 1136 l 5
 1030 1563 l 5
 1050 1563 l 5
 1043 1487 l 5
 691 1069 l 5
215 1078 m 5
 151 1041 l 5
 201 1614 l 5
 255 1534 l 5
 215 1078 l 5
165 514 m 5
 98 434 l 5
 148 1007 l 5
 205 968 l 5
 165 514 l 5
168 1023 m 5
 196 1054 l 5
 557 1054 l 5
 577 1026 l 5
 551 996 l 5
 186 996 l 5
 168 1023 l 5
EndSplineSet
EndChar

StartChar: L
Encoding: 76 76 46
Width: 1228
VWidth: 0
Flags: W
HStem: 410 60<166 502 630 966>
LayerCount: 2
Back
Fore
SplineSet
116 410 m 5
 166 470 l 5
 502 470 l 5
 542 410 l 5
 116 410 l 5
580 410 m 5
 630 470 l 5
 966 470 l 5
 1006 410 l 5
 580 410 l 5
215 1078 m 5
 151 1041 l 5
 201 1614 l 5
 255 1534 l 5
 215 1078 l 5
165 514 m 5
 98 434 l 5
 148 1007 l 5
 205 968 l 5
 165 514 l 5
EndSplineSet
EndChar

StartChar: M
Encoding: 77 77 47
Width: 1228
VWidth: 0
Flags: W
HStem: 434 21G<99.7452 114.75 1013.5 1028.75> 1543 20G<199.255 214.5 270.333 303.333 1013.09 1050 1113.04 1128.25> 1594 20G<199.255 214.5 1113.04 1128.25>
LayerCount: 2
Back
Fore
SplineSet
691 1069 m 5
 663 1069 l 5
 669 1136 l 5
 1030 1563 l 5
 1050 1563 l 5
 1043 1487 l 5
 691 1069 l 5
548 1069 m 5
 266 1491 l 5
 272 1563 l 5
 290 1563 l 5
 578 1131 l 5
 573 1069 l 5
 548 1069 l 5
1023 1080 m 5
 1063 1535 l 5
 1130 1614 l 5
 1080 1041 l 5
 1023 1080 l 5
973 514 m 5
 1013 970 l 5
 1077 1007 l 5
 1027 434 l 5
 973 514 l 5
215 1078 m 5
 151 1041 l 5
 201 1614 l 5
 255 1534 l 5
 215 1078 l 5
165 514 m 5
 98 434 l 5
 148 1007 l 5
 205 968 l 5
 165 514 l 5
EndSplineSet
EndChar

StartChar: N
Encoding: 78 78 48
Width: 1228
VWidth: 0
Flags: W
HStem: 434 21G<99.7452 114.75 1013.5 1028.75> 1543 20G<199.255 214.5 270.333 303.333 1113.04 1128.25> 1594 20G<199.255 214.5 1113.04 1128.25>
LayerCount: 2
Back
Fore
SplineSet
938 485 m 5
 650 917 l 5
 655 979 l 5
 680 979 l 5
 962 557 l 5
 956 485 l 5
 938 485 l 5
548 1069 m 5
 266 1491 l 5
 272 1563 l 5
 290 1563 l 5
 578 1131 l 5
 573 1069 l 5
 548 1069 l 5
1023 1080 m 5
 1063 1535 l 5
 1130 1614 l 5
 1080 1041 l 5
 1023 1080 l 5
973 514 m 5
 1013 970 l 5
 1077 1007 l 5
 1027 434 l 5
 973 514 l 5
215 1078 m 5
 151 1041 l 5
 201 1614 l 5
 255 1534 l 5
 215 1078 l 5
165 514 m 5
 98 434 l 5
 148 1007 l 5
 205 968 l 5
 165 514 l 5
EndSplineSet
EndChar

StartChar: O
Encoding: 79 79 49
Width: 1228
VWidth: 0
Flags: W
HStem: 410 60<166 502 630 966> 434 21G<99.7452 114.75 1013.5 1028.75> 1578 60<262 598 726 1062> 1594 20G<199.255 214.5 1113.04 1128.25> 1594 20G<199.255 214.5 1113.04 1128.25>
LayerCount: 2
Back
Fore
SplineSet
116 410 m 5x80
 166 470 l 5
 502 470 l 5
 542 410 l 5
 116 410 l 5x80
580 410 m 5
 630 470 l 5
 966 470 l 5
 1006 410 l 5
 580 410 l 5
1023 1080 m 5
 1063 1535 l 5
 1130 1614 l 5x08
 1080 1041 l 5
 1023 1080 l 5
973 514 m 5
 1013 970 l 5
 1077 1007 l 5
 1027 434 l 5x40
 973 514 l 5
215 1078 m 5
 151 1041 l 5
 201 1614 l 5x10
 255 1534 l 5
 215 1078 l 5
165 514 m 5
 98 434 l 5x40
 148 1007 l 5
 205 968 l 5
 165 514 l 5
683 1638 m 5x20
 1112 1638 l 5
 1062 1578 l 5
 726 1578 l 5
 683 1638 l 5x20
219 1638 m 5
 648 1638 l 5
 598 1578 l 5
 262 1578 l 5
 219 1638 l 5
EndSplineSet
EndChar

StartChar: P
Encoding: 80 80 50
Width: 1228
VWidth: 0
Flags: W
HStem: 434 21G<99.7452 114.75> 996 58<196 551 679 1034> 1578 60<262 598 726 1062> 1594 20G<199.255 214.5 1113.04 1128.25> 1594 20G<199.255 214.5 1113.04 1128.25>
LayerCount: 2
Back
Fore
SplineSet
1023 1080 m 5xc8
 1063 1535 l 5
 1130 1614 l 5
 1080 1041 l 5
 1023 1080 l 5xc8
215 1078 m 5
 151 1041 l 5
 201 1614 l 5xd0
 255 1534 l 5
 215 1078 l 5
165 514 m 5
 98 434 l 5
 148 1007 l 5
 205 968 l 5
 165 514 l 5
683 1638 m 5xe0
 1112 1638 l 5
 1062 1578 l 5
 726 1578 l 5
 683 1638 l 5xe0
219 1638 m 5
 648 1638 l 5
 598 1578 l 5
 262 1578 l 5
 219 1638 l 5
651 1020 m 5
 679 1054 l 5
 1040 1054 l 5
 1060 1025 l 5
 1034 994 l 5
 669 994 l 5
 651 1020 l 5
168 1023 m 5
 196 1054 l 5
 557 1054 l 5
 577 1026 l 5
 551 996 l 5
 186 996 l 5
 168 1023 l 5
EndSplineSet
EndChar

StartChar: Q
Encoding: 81 81 51
Width: 1228
VWidth: 0
Flags: W
HStem: 410 60<166 502 630 966> 434 21G<99.7452 114.75 1013.5 1028.75> 1578 60<262 598 726 1062> 1594 20G<199.255 214.5 1113.04 1128.25> 1594 20G<199.255 214.5 1113.04 1128.25>
LayerCount: 2
Back
Fore
SplineSet
938 485 m 5x00
 650 917 l 5
 655 979 l 5
 680 979 l 5
 962 557 l 5
 956 485 l 5
 938 485 l 5x00
116 410 m 5x80
 166 470 l 5
 502 470 l 5
 542 410 l 5
 116 410 l 5x80
580 410 m 5
 630 470 l 5
 966 470 l 5
 1006 410 l 5
 580 410 l 5
1023 1080 m 5
 1063 1535 l 5
 1130 1614 l 5x08
 1080 1041 l 5
 1023 1080 l 5
973 514 m 5
 1013 970 l 5
 1077 1007 l 5
 1027 434 l 5x40
 973 514 l 5
215 1078 m 5
 151 1041 l 5
 201 1614 l 5x10
 255 1534 l 5
 215 1078 l 5
165 514 m 5
 98 434 l 5x40
 148 1007 l 5
 205 968 l 5
 165 514 l 5
683 1638 m 5x20
 1112 1638 l 5
 1062 1578 l 5
 726 1578 l 5
 683 1638 l 5x20
219 1638 m 5
 648 1638 l 5
 598 1578 l 5
 262 1578 l 5
 219 1638 l 5
EndSplineSet
EndChar

StartChar: R
Encoding: 82 82 52
Width: 1228
VWidth: 0
Flags: W
HStem: 434 21G<99.7452 114.75> 996 58<196 551 679 1034> 1578 60<262 598 726 1062> 1594 20G<199.255 214.5 1113.04 1128.25> 1594 20G<199.255 214.5 1113.04 1128.25>
LayerCount: 2
Back
Fore
SplineSet
938 485 m 5xc0
 650 917 l 5
 655 979 l 5
 680 979 l 5
 962 557 l 5
 956 485 l 5
 938 485 l 5xc0
1023 1080 m 5
 1063 1535 l 5
 1130 1614 l 5xc8
 1080 1041 l 5
 1023 1080 l 5
215 1078 m 5
 151 1041 l 5
 201 1614 l 5xd0
 255 1534 l 5
 215 1078 l 5
165 514 m 5
 98 434 l 5
 148 1007 l 5
 205 968 l 5
 165 514 l 5
683 1638 m 5xe0
 1112 1638 l 5
 1062 1578 l 5
 726 1578 l 5
 683 1638 l 5xe0
219 1638 m 5
 648 1638 l 5
 598 1578 l 5
 262 1578 l 5
 219 1638 l 5
651 1020 m 5
 679 1054 l 5
 1040 1054 l 5
 1060 1025 l 5
 1034 994 l 5
 669 994 l 5
 651 1020 l 5
168 1023 m 5
 196 1054 l 5
 557 1054 l 5
 577 1026 l 5
 551 996 l 5
 186 996 l 5
 168 1023 l 5
EndSplineSet
EndChar

StartChar: S
Encoding: 83 83 53
Width: 1228
VWidth: 0
Flags: W
HStem: 410 60<166 502 630 966> 434 21G<1013.5 1028.75> 996 58<196 551 679 1034> 1578 60<262 598 726 1062> 1594 20G<199.255 214.5> 1594 20G<199.255 214.5>
LayerCount: 2
Back
Fore
SplineSet
116 410 m 5xa0
 166 470 l 5
 502 470 l 5
 542 410 l 5
 116 410 l 5xa0
580 410 m 5
 630 470 l 5
 966 470 l 5
 1006 410 l 5
 580 410 l 5
973 514 m 5
 1013 970 l 5
 1077 1007 l 5
 1027 434 l 5x60
 973 514 l 5
215 1078 m 5
 151 1041 l 5
 201 1614 l 5x28
 255 1534 l 5
 215 1078 l 5
683 1638 m 5x30
 1112 1638 l 5
 1062 1578 l 5
 726 1578 l 5
 683 1638 l 5x30
219 1638 m 5
 648 1638 l 5
 598 1578 l 5
 262 1578 l 5
 219 1638 l 5
651 1020 m 5
 679 1054 l 5
 1040 1054 l 5
 1060 1025 l 5
 1034 994 l 5
 669 994 l 5
 651 1020 l 5
168 1023 m 5
 196 1054 l 5
 557 1054 l 5
 577 1026 l 5
 551 996 l 5
 186 996 l 5
 168 1023 l 5
EndSplineSet
EndChar

StartChar: T
Encoding: 84 84 54
Width: 1228
VWidth: 0
Flags: W
HStem: 410 60<166 502 630 966> 500 60<634 689> 996 60<196 551 679 1034> 1578 60<262 598 726 1062>
VStem: 628 61<500 560 1465.25 1572>
LayerCount: 2
Back
Fore
SplineSet
683 1638 m 5
 1112 1638 l 5
 1062 1578 l 5
 726 1578 l 5
 683 1638 l 5
219 1638 m 5
 648 1638 l 5
 598 1578 l 5
 262 1578 l 5
 219 1638 l 5
618 1072 m 5
 592 1111 l 5
 632 1572 l 5
 665 1612 l 5
 692 1574 l 5
 652 1109 l 5
 618 1072 l 5
563 436 m 5
 536 476 l 5
 576 937 l 5
 610 976 l 5
 637 939 l 5
 596 473 l 5
 563 436 l 5
EndSplineSet
EndChar

StartChar: U
Encoding: 85 85 55
Width: 1228
VWidth: 0
Flags: W
HStem: 410 60<166 502 630 966> 500 60<634 689> 996 60<196 551 679 1034> 1578 60<262 598 726 1062>
VStem: 628 61<500 560 1465.25 1572>
LayerCount: 2
Back
Fore
SplineSet
116 410 m 5
 166 470 l 5
 502 470 l 5
 542 410 l 5
 116 410 l 5
580 410 m 5
 630 470 l 5
 966 470 l 5
 1006 410 l 5
 580 410 l 5
1023 1080 m 5
 1063 1535 l 5
 1130 1614 l 5
 1080 1041 l 5
 1023 1080 l 5
973 514 m 5
 1013 970 l 5
 1077 1007 l 5
 1027 434 l 5
 973 514 l 5
215 1078 m 5
 151 1041 l 5
 201 1614 l 5
 255 1534 l 5
 215 1078 l 5
165 514 m 5
 98 434 l 5
 148 1007 l 5
 205 968 l 5
 165 514 l 5
EndSplineSet
EndChar

StartChar: V
Encoding: 86 86 56
Width: 1228
VWidth: 0
Flags: W
HStem: 410 60<166 502 630 966> 500 60<634 689> 996 60<196 551 679 1034> 1578 60<262 598 726 1062>
VStem: 628 61<500 560 1465.25 1572>
LayerCount: 2
Back
Fore
SplineSet
198 485 m 5
 178 485 l 5
 184 561 l 5
 537 979 l 5
 565 979 l 5
 559 913 l 5
 198 485 l 5
691 1069 m 5
 663 1069 l 5
 669 1136 l 5
 1030 1563 l 5
 1050 1563 l 5
 1043 1487 l 5
 691 1069 l 5
215 1078 m 5
 151 1041 l 5
 201 1614 l 5
 255 1534 l 5
 215 1078 l 5
165 514 m 5
 98 434 l 5
 148 1007 l 5
 205 968 l 5
 165 514 l 5
EndSplineSet
EndChar

StartChar: W
Encoding: 87 87 57
Width: 1228
VWidth: 0
Flags: W
HStem: 410 60<166 502 630 966> 500 60<634 689> 996 60<196 551 679 1034> 1578 60<262 598 726 1062>
VStem: 628 61<500 560 1465.25 1572>
LayerCount: 2
Back
Fore
SplineSet
198 485 m 5
 178 485 l 5
 184 561 l 5
 537 979 l 5
 565 979 l 5
 559 913 l 5
 198 485 l 5
938 485 m 5
 650 917 l 5
 655 979 l 5
 680 979 l 5
 962 557 l 5
 956 485 l 5
 938 485 l 5
1023 1080 m 5
 1063 1535 l 5
 1130 1614 l 5
 1080 1041 l 5
 1023 1080 l 5
973 514 m 5
 1013 970 l 5
 1077 1007 l 5
 1027 434 l 5
 973 514 l 5
215 1078 m 5
 151 1041 l 5
 201 1614 l 5
 255 1534 l 5
 215 1078 l 5
165 514 m 5
 98 434 l 5
 148 1007 l 5
 205 968 l 5
 165 514 l 5
EndSplineSet
EndChar

StartChar: X
Encoding: 88 88 58
Width: 1228
VWidth: 0
Flags: W
HStem: 410 60<166 502 630 966> 500 60<634 689> 996 60<196 551 679 1034> 1578 60<262 598 726 1062>
VStem: 628 61<500 560 1465.25 1572>
LayerCount: 2
Back
Fore
SplineSet
198 485 m 5
 178 485 l 5
 184 561 l 5
 537 979 l 5
 565 979 l 5
 559 913 l 5
 198 485 l 5
938 485 m 5
 650 917 l 5
 655 979 l 5
 680 979 l 5
 962 557 l 5
 956 485 l 5
 938 485 l 5
691 1069 m 5
 663 1069 l 5
 669 1136 l 5
 1030 1563 l 5
 1050 1563 l 5
 1043 1487 l 5
 691 1069 l 5
548 1069 m 5
 266 1491 l 5
 272 1563 l 5
 290 1563 l 5
 578 1131 l 5
 573 1069 l 5
 548 1069 l 5
EndSplineSet
EndChar

StartChar: Y
Encoding: 89 89 59
Width: 1228
VWidth: 0
Flags: W
HStem: 1543 20G<270.333 303.333 1013.09 1050>
LayerCount: 2
Back
Fore
SplineSet
691 1069 m 5
 663 1069 l 5
 669 1136 l 5
 1030 1563 l 5
 1050 1563 l 5
 1043 1487 l 5
 691 1069 l 5
548 1069 m 5
 266 1491 l 5
 272 1563 l 5
 290 1563 l 5
 578 1131 l 5
 573 1069 l 5
 548 1069 l 5
563 436 m 5
 536 476 l 5
 576 937 l 5
 610 976 l 5
 637 939 l 5
 596 473 l 5
 563 436 l 5
EndSplineSet
EndChar

StartChar: Z
Encoding: 90 90 60
Width: 1228
VWidth: 0
Flags: W
HStem: 410 60<166 502 630 966> 1543 20G<1013.09 1050> 1578 60<262 598 726 1062>
LayerCount: 2
Back
Fore
SplineSet
198 485 m 5
 178 485 l 5
 184 561 l 5
 537 979 l 5
 565 979 l 5
 559 913 l 5
 198 485 l 5
691 1069 m 5
 663 1069 l 5
 669 1136 l 5
 1030 1563 l 5
 1050 1563 l 5
 1043 1487 l 5
 691 1069 l 5
116 410 m 5
 166 470 l 5
 502 470 l 5
 542 410 l 5
 116 410 l 5
580 410 m 5
 630 470 l 5
 966 470 l 5
 1006 410 l 5
 580 410 l 5
683 1638 m 5
 1112 1638 l 5
 1062 1578 l 5
 726 1578 l 5
 683 1638 l 5
219 1638 m 5
 648 1638 l 5
 598 1578 l 5
 262 1578 l 5
 219 1638 l 5
EndSplineSet
EndChar

StartChar: bracketleft
Encoding: 91 91 61
Width: 1228
VWidth: 0
Flags: W
HStem: 410 60<166 502> 434 21G<99.7452 114.75> 1578 60<262 598> 1594 20G<199.255 214.5> 1594 20G<199.255 214.5>
VStem: 98 550
LayerCount: 2
Back
Fore
SplineSet
116 410 m 5x84
 166 470 l 5
 502 470 l 5
 542 410 l 5
 116 410 l 5x84
215 1078 m 5
 151 1041 l 5
 201 1614 l 5x14
 255 1534 l 5
 215 1078 l 5
165 514 m 5
 98 434 l 5x44
 148 1007 l 5
 205 968 l 5
 165 514 l 5
219 1638 m 5x24
 648 1638 l 5
 598 1578 l 5
 262 1578 l 5
 219 1638 l 5x24
EndSplineSet
EndChar

StartChar: backslash
Encoding: 92 92 62
Width: 1228
VWidth: 0
Flags: W
HStem: 1543 20G<270.333 303.333>
LayerCount: 2
Back
Fore
SplineSet
938 485 m 5
 650 917 l 5
 655 979 l 5
 680 979 l 5
 962 557 l 5
 956 485 l 5
 938 485 l 5
548 1069 m 5
 266 1491 l 5
 272 1563 l 5
 290 1563 l 5
 578 1131 l 5
 573 1069 l 5
 548 1069 l 5
EndSplineSet
EndChar

StartChar: bracketright
Encoding: 93 93 63
Width: 1228
VWidth: 0
Flags: W
HStem: 410 60<630 966> 434 21G<1013.5 1028.75> 1578 60<726 1062> 1594 20G<1113.04 1128.25> 1594 20G<1113.04 1128.25>
VStem: 580 550
LayerCount: 2
Back
Fore
SplineSet
580 410 m 5x84
 630 470 l 5
 966 470 l 5
 1006 410 l 5
 580 410 l 5x84
1023 1080 m 5
 1063 1535 l 5
 1130 1614 l 5x0c
 1080 1041 l 5
 1023 1080 l 5
973 514 m 5
 1013 970 l 5
 1077 1007 l 5
 1027 434 l 5x44
 973 514 l 5
683 1638 m 5x24
 1112 1638 l 5
 1062 1578 l 5
 726 1578 l 5
 683 1638 l 5x24
EndSplineSet
EndChar

StartChar: asciicircum
Encoding: 94 94 64
Width: 1228
VWidth: 0
Flags: W
HStem: 485 494
LayerCount: 2
Back
Fore
SplineSet
198 485 m 5
 178 485 l 5
 184 561 l 5
 537 979 l 5
 565 979 l 5
 559 913 l 5
 198 485 l 5
938 485 m 5
 650 917 l 5
 655 979 l 5
 680 979 l 5
 962 557 l 5
 956 485 l 5
 938 485 l 5
EndSplineSet
EndChar

StartChar: underscore
Encoding: 95 95 65
Width: 1228
VWidth: 0
Flags: W
HStem: 410 60<166 502 630 966>
LayerCount: 2
Back
Fore
SplineSet
116 410 m 5
 166 470 l 5
 502 470 l 5
 542 410 l 5
 116 410 l 5
580 410 m 5
 630 470 l 5
 966 470 l 5
 1006 410 l 5
 580 410 l 5
EndSplineSet
EndChar

StartChar: a
Encoding: 97 97 66
Width: 1228
VWidth: 0
Flags: W
HStem: 996 58<196 551 679 1034> 1578 60<262 598 726 1062>
LayerCount: 2
Back
Fore
SplineSet
1023 1080 m 5
 1063 1535 l 5
 1130 1614 l 5
 1080 1041 l 5
 1023 1080 l 5
973 514 m 5
 1013 970 l 5
 1077 1007 l 5
 1027 434 l 5
 973 514 l 5
215 1078 m 5
 151 1041 l 5
 201 1614 l 5
 255 1534 l 5
 215 1078 l 5
165 514 m 5
 98 434 l 5
 148 1007 l 5
 205 968 l 5
 165 514 l 5
683 1638 m 5
 1112 1638 l 5
 1062 1578 l 5
 726 1578 l 5
 683 1638 l 5
219 1638 m 5
 648 1638 l 5
 598 1578 l 5
 262 1578 l 5
 219 1638 l 5
651 1020 m 5
 679 1054 l 5
 1040 1054 l 5
 1060 1025 l 5
 1034 994 l 5
 669 994 l 5
 651 1020 l 5
168 1023 m 5
 196 1054 l 5
 557 1054 l 5
 577 1026 l 5
 551 996 l 5
 186 996 l 5
 168 1023 l 5
EndSplineSet
EndChar

StartChar: b
Encoding: 98 98 67
Width: 1228
VWidth: 0
Flags: W
HStem: 410 60<166 502 630 966> 994 60<679 1034> 1578 60<262 598 726 1062>
LayerCount: 2
Back
Fore
SplineSet
116 410 m 5
 166 470 l 5
 502 470 l 5
 542 410 l 5
 116 410 l 5
580 410 m 5
 630 470 l 5
 966 470 l 5
 1006 410 l 5
 580 410 l 5
1023 1080 m 5
 1063 1535 l 5
 1130 1614 l 5
 1080 1041 l 5
 1023 1080 l 5
973 514 m 5
 1013 970 l 5
 1077 1007 l 5
 1027 434 l 5
 973 514 l 5
683 1638 m 5
 1112 1638 l 5
 1062 1578 l 5
 726 1578 l 5
 683 1638 l 5
219 1638 m 5
 648 1638 l 5
 598 1578 l 5
 262 1578 l 5
 219 1638 l 5
618 1072 m 5
 592 1111 l 5
 632 1572 l 5
 665 1612 l 5
 692 1574 l 5
 652 1109 l 5
 618 1072 l 5
563 436 m 5
 536 476 l 5
 576 937 l 5
 610 976 l 5
 637 939 l 5
 596 473 l 5
 563 436 l 5
651 1020 m 5
 679 1054 l 5
 1040 1054 l 5
 1060 1025 l 5
 1034 994 l 5
 669 994 l 5
 651 1020 l 5
EndSplineSet
EndChar

StartChar: c
Encoding: 99 99 68
Width: 1228
VWidth: 0
Flags: W
HStem: 410 60<166 502 630 966> 1578 60<262 598 726 1062>
LayerCount: 2
Back
Fore
SplineSet
116 410 m 5
 166 470 l 5
 502 470 l 5
 542 410 l 5
 116 410 l 5
580 410 m 5
 630 470 l 5
 966 470 l 5
 1006 410 l 5
 580 410 l 5
215 1078 m 5
 151 1041 l 5
 201 1614 l 5
 255 1534 l 5
 215 1078 l 5
165 514 m 5
 98 434 l 5
 148 1007 l 5
 205 968 l 5
 165 514 l 5
683 1638 m 5
 1112 1638 l 5
 1062 1578 l 5
 726 1578 l 5
 683 1638 l 5
219 1638 m 5
 648 1638 l 5
 598 1578 l 5
 262 1578 l 5
 219 1638 l 5
EndSplineSet
EndChar

StartChar: d
Encoding: 100 100 69
Width: 1228
VWidth: 0
Flags: W
HStem: 410 60<166 502 630 966> 500 60<634 689> 996 60<196 551 679 1034> 1578 60<262 598 726 1062>
VStem: 628 61<500 560 1465.25 1572>
LayerCount: 2
Back
Fore
SplineSet
116 410 m 5
 166 470 l 5
 502 470 l 5
 542 410 l 5
 116 410 l 5
580 410 m 5
 630 470 l 5
 966 470 l 5
 1006 410 l 5
 580 410 l 5
1023 1080 m 5
 1063 1535 l 5
 1130 1614 l 5
 1080 1041 l 5
 1023 1080 l 5
973 514 m 5
 1013 970 l 5
 1077 1007 l 5
 1027 434 l 5
 973 514 l 5
683 1638 m 5
 1112 1638 l 5
 1062 1578 l 5
 726 1578 l 5
 683 1638 l 5
219 1638 m 5
 648 1638 l 5
 598 1578 l 5
 262 1578 l 5
 219 1638 l 5
618 1072 m 5
 592 1111 l 5
 632 1572 l 5
 665 1612 l 5
 692 1574 l 5
 652 1109 l 5
 618 1072 l 5
563 436 m 5
 536 476 l 5
 576 937 l 5
 610 976 l 5
 637 939 l 5
 596 473 l 5
 563 436 l 5
EndSplineSet
EndChar

StartChar: e
Encoding: 101 101 70
Width: 1228
VWidth: 0
Flags: W
HStem: 410 60<166 502 630 966> 996 58<196 551> 1578 60<262 598 726 1062>
LayerCount: 2
Back
Fore
SplineSet
116 410 m 5
 166 470 l 5
 502 470 l 5
 542 410 l 5
 116 410 l 5
580 410 m 5
 630 470 l 5
 966 470 l 5
 1006 410 l 5
 580 410 l 5
215 1078 m 5
 151 1041 l 5
 201 1614 l 5
 255 1534 l 5
 215 1078 l 5
165 514 m 5
 98 434 l 5
 148 1007 l 5
 205 968 l 5
 165 514 l 5
683 1638 m 5
 1112 1638 l 5
 1062 1578 l 5
 726 1578 l 5
 683 1638 l 5
219 1638 m 5
 648 1638 l 5
 598 1578 l 5
 262 1578 l 5
 219 1638 l 5
168 1023 m 5
 196 1054 l 5
 557 1054 l 5
 577 1026 l 5
 551 996 l 5
 186 996 l 5
 168 1023 l 5
EndSplineSet
EndChar

StartChar: f
Encoding: 102 102 71
Width: 1228
VWidth: 0
Flags: W
HStem: 996 58<196 551> 1578 60<262 598 726 1062>
LayerCount: 2
Back
Fore
SplineSet
215 1078 m 5
 151 1041 l 5
 201 1614 l 5
 255 1534 l 5
 215 1078 l 5
165 514 m 5
 98 434 l 5
 148 1007 l 5
 205 968 l 5
 165 514 l 5
683 1638 m 5
 1112 1638 l 5
 1062 1578 l 5
 726 1578 l 5
 683 1638 l 5
219 1638 m 5
 648 1638 l 5
 598 1578 l 5
 262 1578 l 5
 219 1638 l 5
168 1023 m 5
 196 1054 l 5
 557 1054 l 5
 577 1026 l 5
 551 996 l 5
 186 996 l 5
 168 1023 l 5
EndSplineSet
EndChar

StartChar: g
Encoding: 103 103 72
Width: 1228
VWidth: 0
Flags: W
HStem: 410 60<166 502 630 966> 994 60<679 1034> 1578 60<262 598 726 1062>
LayerCount: 2
Back
Fore
SplineSet
116 410 m 5
 166 470 l 5
 502 470 l 5
 542 410 l 5
 116 410 l 5
580 410 m 5
 630 470 l 5
 966 470 l 5
 1006 410 l 5
 580 410 l 5
973 514 m 5
 1013 970 l 5
 1077 1007 l 5
 1027 434 l 5
 973 514 l 5
215 1078 m 5
 151 1041 l 5
 201 1614 l 5
 255 1534 l 5
 215 1078 l 5
165 514 m 5
 98 434 l 5
 148 1007 l 5
 205 968 l 5
 165 514 l 5
683 1638 m 5
 1112 1638 l 5
 1062 1578 l 5
 726 1578 l 5
 683 1638 l 5
219 1638 m 5
 648 1638 l 5
 598 1578 l 5
 262 1578 l 5
 219 1638 l 5
651 1020 m 5
 679 1054 l 5
 1040 1054 l 5
 1060 1025 l 5
 1034 994 l 5
 669 994 l 5
 651 1020 l 5
EndSplineSet
EndChar

StartChar: h
Encoding: 104 104 73
Width: 1228
VWidth: 0
Flags: W
HStem: 996 58<196 551 679 1034>
LayerCount: 2
Back
Fore
SplineSet
1023 1080 m 5
 1063 1535 l 5
 1130 1614 l 5
 1080 1041 l 5
 1023 1080 l 5
973 514 m 5
 1013 970 l 5
 1077 1007 l 5
 1027 434 l 5
 973 514 l 5
215 1078 m 5
 151 1041 l 5
 201 1614 l 5
 255 1534 l 5
 215 1078 l 5
165 514 m 5
 98 434 l 5
 148 1007 l 5
 205 968 l 5
 165 514 l 5
651 1020 m 5
 679 1054 l 5
 1040 1054 l 5
 1060 1025 l 5
 1034 994 l 5
 669 994 l 5
 651 1020 l 5
168 1023 m 5
 196 1054 l 5
 557 1054 l 5
 577 1026 l 5
 551 996 l 5
 186 996 l 5
 168 1023 l 5
EndSplineSet
EndChar

StartChar: i
Encoding: 105 105 74
Width: 1228
VWidth: 0
Flags: W
HStem: 410 60<166 502 630 966> 1578 60<262 598 726 1062>
LayerCount: 2
Back
Fore
SplineSet
116 410 m 5
 166 470 l 5
 502 470 l 5
 542 410 l 5
 116 410 l 5
580 410 m 5
 630 470 l 5
 966 470 l 5
 1006 410 l 5
 580 410 l 5
683 1638 m 5
 1112 1638 l 5
 1062 1578 l 5
 726 1578 l 5
 683 1638 l 5
219 1638 m 5
 648 1638 l 5
 598 1578 l 5
 262 1578 l 5
 219 1638 l 5
618 1072 m 5
 592 1111 l 5
 632 1572 l 5
 665 1612 l 5
 692 1574 l 5
 652 1109 l 5
 618 1072 l 5
563 436 m 5
 536 476 l 5
 576 937 l 5
 610 976 l 5
 637 939 l 5
 596 473 l 5
 563 436 l 5
EndSplineSet
EndChar

StartChar: j
Encoding: 106 106 75
Width: 1228
VWidth: 0
Flags: W
HStem: 410 60<166 502> 1578 60<262 598 726 1062>
LayerCount: 2
Back
Fore
SplineSet
116 410 m 5
 166 470 l 5
 502 470 l 5
 542 410 l 5
 116 410 l 5
165 514 m 5
 98 434 l 5
 148 1007 l 5
 205 968 l 5
 165 514 l 5
683 1638 m 5
 1112 1638 l 5
 1062 1578 l 5
 726 1578 l 5
 683 1638 l 5
219 1638 m 5
 648 1638 l 5
 598 1578 l 5
 262 1578 l 5
 219 1638 l 5
618 1072 m 5
 592 1111 l 5
 632 1572 l 5
 665 1612 l 5
 692 1574 l 5
 652 1109 l 5
 618 1072 l 5
563 436 m 5
 536 476 l 5
 576 937 l 5
 610 976 l 5
 637 939 l 5
 596 473 l 5
 563 436 l 5
EndSplineSet
EndChar

StartChar: k
Encoding: 107 107 76
Width: 1228
VWidth: 0
Flags: W
HStem: 996 58<196 551>
LayerCount: 2
Back
Fore
SplineSet
938 485 m 5
 650 917 l 5
 655 979 l 5
 680 979 l 5
 962 557 l 5
 956 485 l 5
 938 485 l 5
691 1069 m 5
 663 1069 l 5
 669 1136 l 5
 1030 1563 l 5
 1050 1563 l 5
 1043 1487 l 5
 691 1069 l 5
215 1078 m 5
 151 1041 l 5
 201 1614 l 5
 255 1534 l 5
 215 1078 l 5
165 514 m 5
 98 434 l 5
 148 1007 l 5
 205 968 l 5
 165 514 l 5
168 1023 m 5
 196 1054 l 5
 557 1054 l 5
 577 1026 l 5
 551 996 l 5
 186 996 l 5
 168 1023 l 5
EndSplineSet
EndChar

StartChar: l
Encoding: 108 108 77
Width: 1228
VWidth: 0
Flags: W
HStem: 410 60<166 502 630 966>
LayerCount: 2
Back
Fore
SplineSet
116 410 m 5
 166 470 l 5
 502 470 l 5
 542 410 l 5
 116 410 l 5
580 410 m 5
 630 470 l 5
 966 470 l 5
 1006 410 l 5
 580 410 l 5
215 1078 m 5
 151 1041 l 5
 201 1614 l 5
 255 1534 l 5
 215 1078 l 5
165 514 m 5
 98 434 l 5
 148 1007 l 5
 205 968 l 5
 165 514 l 5
EndSplineSet
EndChar

StartChar: m
Encoding: 109 109 78
Width: 1228
VWidth: 0
Flags: W
HStem: 410 60<166 502 630 966> 500 60<634 689> 996 60<196 551 679 1034> 1578 60<262 598 726 1062>
VStem: 628 61<500 560 1465.25 1572>
LayerCount: 2
Back
Fore
SplineSet
691 1069 m 5
 663 1069 l 5
 669 1136 l 5
 1030 1563 l 5
 1050 1563 l 5
 1043 1487 l 5
 691 1069 l 5
548 1069 m 5
 266 1491 l 5
 272 1563 l 5
 290 1563 l 5
 578 1131 l 5
 573 1069 l 5
 548 1069 l 5
1023 1080 m 5
 1063 1535 l 5
 1130 1614 l 5
 1080 1041 l 5
 1023 1080 l 5
973 514 m 5
 1013 970 l 5
 1077 1007 l 5
 1027 434 l 5
 973 514 l 5
215 1078 m 5
 151 1041 l 5
 201 1614 l 5
 255 1534 l 5
 215 1078 l 5
165 514 m 5
 98 434 l 5
 148 1007 l 5
 205 968 l 5
 165 514 l 5
EndSplineSet
EndChar

StartChar: n
Encoding: 110 110 79
Width: 1228
VWidth: 0
Flags: W
HStem: 410 60<166 502 630 966> 500 60<634 689> 996 60<196 551 679 1034> 1578 60<262 598 726 1062>
VStem: 628 61<500 560 1465.25 1572>
LayerCount: 2
Back
Fore
SplineSet
938 485 m 5
 650 917 l 5
 655 979 l 5
 680 979 l 5
 962 557 l 5
 956 485 l 5
 938 485 l 5
548 1069 m 5
 266 1491 l 5
 272 1563 l 5
 290 1563 l 5
 578 1131 l 5
 573 1069 l 5
 548 1069 l 5
1023 1080 m 5
 1063 1535 l 5
 1130 1614 l 5
 1080 1041 l 5
 1023 1080 l 5
973 514 m 5
 1013 970 l 5
 1077 1007 l 5
 1027 434 l 5
 973 514 l 5
215 1078 m 5
 151 1041 l 5
 201 1614 l 5
 255 1534 l 5
 215 1078 l 5
165 514 m 5
 98 434 l 5
 148 1007 l 5
 205 968 l 5
 165 514 l 5
EndSplineSet
EndChar

StartChar: o
Encoding: 111 111 80
Width: 1228
VWidth: 0
Flags: W
HStem: 410 60<166 502 630 966> 500 60<634 689> 996 60<196 551 679 1034> 1578 60<262 598 726 1062>
VStem: 628 61<500 560 1465.25 1572>
LayerCount: 2
Back
Fore
SplineSet
116 410 m 5
 166 470 l 5
 502 470 l 5
 542 410 l 5
 116 410 l 5
580 410 m 5
 630 470 l 5
 966 470 l 5
 1006 410 l 5
 580 410 l 5
1023 1080 m 5
 1063 1535 l 5
 1130 1614 l 5
 1080 1041 l 5
 1023 1080 l 5
973 514 m 5
 1013 970 l 5
 1077 1007 l 5
 1027 434 l 5
 973 514 l 5
215 1078 m 5
 151 1041 l 5
 201 1614 l 5
 255 1534 l 5
 215 1078 l 5
165 514 m 5
 98 434 l 5
 148 1007 l 5
 205 968 l 5
 165 514 l 5
683 1638 m 5
 1112 1638 l 5
 1062 1578 l 5
 726 1578 l 5
 683 1638 l 5
219 1638 m 5
 648 1638 l 5
 598 1578 l 5
 262 1578 l 5
 219 1638 l 5
EndSplineSet
EndChar

StartChar: p
Encoding: 112 112 81
Width: 1228
VWidth: 0
Flags: W
HStem: 410 60<166 502 630 966> 500 60<634 689> 996 60<196 551 679 1034> 1578 60<262 598 726 1062>
VStem: 628 61<500 560 1465.25 1572>
LayerCount: 2
Back
Fore
SplineSet
1023 1080 m 5
 1063 1535 l 5
 1130 1614 l 5
 1080 1041 l 5
 1023 1080 l 5
215 1078 m 5
 151 1041 l 5
 201 1614 l 5
 255 1534 l 5
 215 1078 l 5
165 514 m 5
 98 434 l 5
 148 1007 l 5
 205 968 l 5
 165 514 l 5
683 1638 m 5
 1112 1638 l 5
 1062 1578 l 5
 726 1578 l 5
 683 1638 l 5
219 1638 m 5
 648 1638 l 5
 598 1578 l 5
 262 1578 l 5
 219 1638 l 5
651 1020 m 5
 679 1054 l 5
 1040 1054 l 5
 1060 1025 l 5
 1034 994 l 5
 669 994 l 5
 651 1020 l 5
168 1023 m 5
 196 1054 l 5
 557 1054 l 5
 577 1026 l 5
 551 996 l 5
 186 996 l 5
 168 1023 l 5
EndSplineSet
EndChar

StartChar: q
Encoding: 113 113 82
Width: 1228
VWidth: 0
Flags: W
HStem: 410 60<166 502 630 966> 500 60<634 689> 996 60<196 551 679 1034> 1578 60<262 598 726 1062>
VStem: 628 61<500 560 1465.25 1572>
LayerCount: 2
Back
Fore
SplineSet
938 485 m 5
 650 917 l 5
 655 979 l 5
 680 979 l 5
 962 557 l 5
 956 485 l 5
 938 485 l 5
116 410 m 5
 166 470 l 5
 502 470 l 5
 542 410 l 5
 116 410 l 5
580 410 m 5
 630 470 l 5
 966 470 l 5
 1006 410 l 5
 580 410 l 5
1023 1080 m 5
 1063 1535 l 5
 1130 1614 l 5
 1080 1041 l 5
 1023 1080 l 5
973 514 m 5
 1013 970 l 5
 1077 1007 l 5
 1027 434 l 5
 973 514 l 5
215 1078 m 5
 151 1041 l 5
 201 1614 l 5
 255 1534 l 5
 215 1078 l 5
165 514 m 5
 98 434 l 5
 148 1007 l 5
 205 968 l 5
 165 514 l 5
683 1638 m 5
 1112 1638 l 5
 1062 1578 l 5
 726 1578 l 5
 683 1638 l 5
219 1638 m 5
 648 1638 l 5
 598 1578 l 5
 262 1578 l 5
 219 1638 l 5
EndSplineSet
EndChar

StartChar: r
Encoding: 114 114 83
Width: 1228
VWidth: 0
Flags: W
HStem: 410 60<166 502 630 966> 500 60<634 689> 996 60<196 551 679 1034> 1578 60<262 598 726 1062>
VStem: 628 61<500 560 1465.25 1572>
LayerCount: 2
Back
Fore
SplineSet
938 485 m 5
 650 917 l 5
 655 979 l 5
 680 979 l 5
 962 557 l 5
 956 485 l 5
 938 485 l 5
1023 1080 m 5
 1063 1535 l 5
 1130 1614 l 5
 1080 1041 l 5
 1023 1080 l 5
215 1078 m 5
 151 1041 l 5
 201 1614 l 5
 255 1534 l 5
 215 1078 l 5
165 514 m 5
 98 434 l 5
 148 1007 l 5
 205 968 l 5
 165 514 l 5
683 1638 m 5
 1112 1638 l 5
 1062 1578 l 5
 726 1578 l 5
 683 1638 l 5
219 1638 m 5
 648 1638 l 5
 598 1578 l 5
 262 1578 l 5
 219 1638 l 5
651 1020 m 5
 679 1054 l 5
 1040 1054 l 5
 1060 1025 l 5
 1034 994 l 5
 669 994 l 5
 651 1020 l 5
168 1023 m 5
 196 1054 l 5
 557 1054 l 5
 577 1026 l 5
 551 996 l 5
 186 996 l 5
 168 1023 l 5
EndSplineSet
EndChar

StartChar: s
Encoding: 115 115 84
Width: 1228
VWidth: 0
Flags: W
HStem: 410 60<166 502 630 966> 500 60<634 689> 996 58<196 551 679 1034> 1578 60<262 598 726 1062>
VStem: 628 61<500 560 1465.25 1572>
LayerCount: 2
Back
Fore
SplineSet
116 410 m 5
 166 470 l 5
 502 470 l 5
 542 410 l 5
 116 410 l 5
580 410 m 5
 630 470 l 5
 966 470 l 5
 1006 410 l 5
 580 410 l 5
973 514 m 5
 1013 970 l 5
 1077 1007 l 5
 1027 434 l 5
 973 514 l 5
215 1078 m 5
 151 1041 l 5
 201 1614 l 5
 255 1534 l 5
 215 1078 l 5
683 1638 m 5
 1112 1638 l 5
 1062 1578 l 5
 726 1578 l 5
 683 1638 l 5
219 1638 m 5
 648 1638 l 5
 598 1578 l 5
 262 1578 l 5
 219 1638 l 5
651 1020 m 5
 679 1054 l 5
 1040 1054 l 5
 1060 1025 l 5
 1034 994 l 5
 669 994 l 5
 651 1020 l 5
168 1023 m 5
 196 1054 l 5
 557 1054 l 5
 577 1026 l 5
 551 996 l 5
 186 996 l 5
 168 1023 l 5
EndSplineSet
EndChar

StartChar: t
Encoding: 116 116 85
Width: 1228
VWidth: 0
Flags: W
HStem: 410 60<166 502 630 966> 500 60<634 689> 996 60<196 551 679 1034> 1578 60<262 598 726 1062>
VStem: 628 61<500 560 1465.25 1572>
LayerCount: 2
Back
Fore
SplineSet
683 1638 m 5
 1112 1638 l 5
 1062 1578 l 5
 726 1578 l 5
 683 1638 l 5
219 1638 m 5
 648 1638 l 5
 598 1578 l 5
 262 1578 l 5
 219 1638 l 5
618 1072 m 5
 592 1111 l 5
 632 1572 l 5
 665 1612 l 5
 692 1574 l 5
 652 1109 l 5
 618 1072 l 5
563 436 m 5
 536 476 l 5
 576 937 l 5
 610 976 l 5
 637 939 l 5
 596 473 l 5
 563 436 l 5
EndSplineSet
EndChar

StartChar: u
Encoding: 117 117 86
Width: 1228
VWidth: 0
Flags: W
HStem: 410 60<166 502 630 966> 500 60<634 689> 996 60<196 551 679 1034> 1578 60<262 598 726 1062>
VStem: 628 61<500 560 1465.25 1572>
LayerCount: 2
Back
Fore
SplineSet
116 410 m 5
 166 470 l 5
 502 470 l 5
 542 410 l 5
 116 410 l 5
580 410 m 5
 630 470 l 5
 966 470 l 5
 1006 410 l 5
 580 410 l 5
1023 1080 m 5
 1063 1535 l 5
 1130 1614 l 5
 1080 1041 l 5
 1023 1080 l 5
973 514 m 5
 1013 970 l 5
 1077 1007 l 5
 1027 434 l 5
 973 514 l 5
215 1078 m 5
 151 1041 l 5
 201 1614 l 5
 255 1534 l 5
 215 1078 l 5
165 514 m 5
 98 434 l 5
 148 1007 l 5
 205 968 l 5
 165 514 l 5
EndSplineSet
EndChar

StartChar: v
Encoding: 118 118 87
Width: 1228
VWidth: 0
Flags: W
HStem: 410 60<166 502 630 966> 500 60<634 689> 996 60<196 551 679 1034> 1578 60<262 598 726 1062>
VStem: 628 61<500 560 1465.25 1572>
LayerCount: 2
Back
Fore
SplineSet
198 485 m 5
 178 485 l 5
 184 561 l 5
 537 979 l 5
 565 979 l 5
 559 913 l 5
 198 485 l 5
691 1069 m 5
 663 1069 l 5
 669 1136 l 5
 1030 1563 l 5
 1050 1563 l 5
 1043 1487 l 5
 691 1069 l 5
215 1078 m 5
 151 1041 l 5
 201 1614 l 5
 255 1534 l 5
 215 1078 l 5
165 514 m 5
 98 434 l 5
 148 1007 l 5
 205 968 l 5
 165 514 l 5
EndSplineSet
EndChar

StartChar: w
Encoding: 119 119 88
Width: 1228
VWidth: 0
Flags: W
HStem: 410 60<166 502 630 966> 500 60<634 689> 996 60<196 551 679 1034> 1578 60<262 598 726 1062>
VStem: 628 61<500 560 1465.25 1572>
LayerCount: 2
Back
Fore
SplineSet
198 485 m 5
 178 485 l 5
 184 561 l 5
 537 979 l 5
 565 979 l 5
 559 913 l 5
 198 485 l 5
938 485 m 5
 650 917 l 5
 655 979 l 5
 680 979 l 5
 962 557 l 5
 956 485 l 5
 938 485 l 5
1023 1080 m 5
 1063 1535 l 5
 1130 1614 l 5
 1080 1041 l 5
 1023 1080 l 5
973 514 m 5
 1013 970 l 5
 1077 1007 l 5
 1027 434 l 5
 973 514 l 5
215 1078 m 5
 151 1041 l 5
 201 1614 l 5
 255 1534 l 5
 215 1078 l 5
165 514 m 5
 98 434 l 5
 148 1007 l 5
 205 968 l 5
 165 514 l 5
EndSplineSet
EndChar

StartChar: x
Encoding: 120 120 89
Width: 1228
VWidth: 0
Flags: W
HStem: 410 60<166 502 630 966> 500 60<634 689> 996 60<196 551 679 1034> 1578 60<262 598 726 1062>
VStem: 628 61<500 560 1465.25 1572>
LayerCount: 2
Back
Fore
SplineSet
198 485 m 5
 178 485 l 5
 184 561 l 5
 537 979 l 5
 565 979 l 5
 559 913 l 5
 198 485 l 5
938 485 m 5
 650 917 l 5
 655 979 l 5
 680 979 l 5
 962 557 l 5
 956 485 l 5
 938 485 l 5
691 1069 m 5
 663 1069 l 5
 669 1136 l 5
 1030 1563 l 5
 1050 1563 l 5
 1043 1487 l 5
 691 1069 l 5
548 1069 m 5
 266 1491 l 5
 272 1563 l 5
 290 1563 l 5
 578 1131 l 5
 573 1069 l 5
 548 1069 l 5
EndSplineSet
EndChar

StartChar: y
Encoding: 121 121 90
Width: 1228
VWidth: 0
Flags: W
HStem: 410 60<166 502 630 966> 500 60<634 689> 996 60<196 551 679 1034> 1578 60<262 598 726 1062>
VStem: 628 61<500 560 1465.25 1572>
LayerCount: 2
Back
Fore
SplineSet
691 1069 m 5
 663 1069 l 5
 669 1136 l 5
 1030 1563 l 5
 1050 1563 l 5
 1043 1487 l 5
 691 1069 l 5
548 1069 m 5
 266 1491 l 5
 272 1563 l 5
 290 1563 l 5
 578 1131 l 5
 573 1069 l 5
 548 1069 l 5
563 436 m 5
 536 476 l 5
 576 937 l 5
 610 976 l 5
 637 939 l 5
 596 473 l 5
 563 436 l 5
EndSplineSet
EndChar

StartChar: z
Encoding: 122 122 91
Width: 1228
VWidth: 0
Flags: W
HStem: 410 60<166 502 630 966> 500 60<634 689> 996 60<196 551 679 1034> 1578 60<262 598 726 1062>
VStem: 628 61<500 560 1465.25 1572>
LayerCount: 2
Back
Fore
SplineSet
198 485 m 5
 178 485 l 5
 184 561 l 5
 537 979 l 5
 565 979 l 5
 559 913 l 5
 198 485 l 5
691 1069 m 5
 663 1069 l 5
 669 1136 l 5
 1030 1563 l 5
 1050 1563 l 5
 1043 1487 l 5
 691 1069 l 5
116 410 m 5
 166 470 l 5
 502 470 l 5
 542 410 l 5
 116 410 l 5
580 410 m 5
 630 470 l 5
 966 470 l 5
 1006 410 l 5
 580 410 l 5
683 1638 m 5
 1112 1638 l 5
 1062 1578 l 5
 726 1578 l 5
 683 1638 l 5
219 1638 m 5
 648 1638 l 5
 598 1578 l 5
 262 1578 l 5
 219 1638 l 5
EndSplineSet
EndChar
